<svg width="48" height="48" viewBox="0 0 48 48" fill="none" xmlns="http://www.w3.org/2000/svg">
<g clip-path="url(#clip0_1015_535)">
<g clip-path="url(#clip1_1015_535)">
<path d="M18.5182 33.75C16.8615 33.75 15.5182 32.4068 15.5182 30.75V27.75C15.5182 26.0932 16.8615 24.75 18.5182 24.75V33.75Z" fill="#6FA4D8"/>
</g>
<g clip-path="url(#clip2_1015_535)">
<path d="M30.5182 33.75C32.175 33.75 33.5182 32.4068 33.5182 30.75V27.75C33.5182 26.0932 32.175 24.75 30.5182 24.75V33.75Z" fill="#5C76B2"/>
</g>
<g clip-path="url(#clip3_1015_535)">
<path d="M30.5182 11.25H18.5182C16.8615 11.25 15.5182 12.5932 15.5182 14.25V21.75C15.5182 23.4067 16.8615 24.75 18.5182 24.75V33.75C18.5182 36.2355 20.5327 38.25 23.0182 38.25H26.0182C28.5037 38.25 30.5182 36.2355 30.5182 33.75V24.75C32.175 24.75 33.5182 23.4067 33.5182 21.75V14.25C33.5182 12.5932 32.175 11.25 30.5182 11.25Z" fill="#F68820"/>
</g>
<g clip-path="url(#clip4_1015_535)">
<path d="M21.5182 11.25H14.0182C13.1895 11.25 12.5182 10.5788 12.5182 9.75V9C12.5182 8.586 12.1822 8.25 11.7682 8.25C11.3542 8.25 11.0182 8.586 11.0182 9V11.25C11.0182 12.9068 12.3615 14.25 14.0182 14.25H20.0182C22.5037 14.25 24.5182 16.2645 24.5182 18.75V14.25C24.5182 12.5932 23.175 11.25 21.5182 11.25Z" fill="#6FA4D8"/>
</g>
<g clip-path="url(#clip5_1015_535)">
<path d="M27.5182 11.25H35.0182C35.847 11.25 36.5182 10.5788 36.5182 9.75V9C36.5182 8.586 36.8542 8.25 37.2682 8.25C37.6822 8.25 38.0182 8.586 38.0182 9V11.25C38.0182 12.9068 36.675 14.25 35.0182 14.25H29.0182C26.5327 14.25 24.5182 16.2645 24.5182 18.75V14.25C24.5182 12.5932 25.8615 11.25 27.5182 11.25Z" fill="#5C76B2"/>
</g>
<g clip-path="url(#clip6_1015_535)">
<g clip-path="url(#clip7_1015_535)">
<path d="M36.5182 44.25V47.25H11.0183V44.25H36.5182Z" fill="#F68820"/>
</g>
<g clip-path="url(#clip8_1015_535)">
<path d="M36.5182 38.25V41.25H11.0183V38.25H36.5182Z" fill="#FBD301"/>
</g>
<g clip-path="url(#clip9_1015_535)">
<path d="M11.0182 41.25H36.5182V44.25H11.0182V41.25Z" fill="#FBBE18"/>
</g>
<g clip-path="url(#clip10_1015_535)">
<path d="M11.0182 38.25L2.68873 42.4148C2.41198 42.5528 2.41198 42.9472 2.68873 43.0852L11.0182 47.25V38.25Z" fill="#DB9E68"/>
</g>
<g clip-path="url(#clip11_1015_535)">
<path d="M11.0184 38.25L2.68893 42.4148C2.55093 42.4838 2.48193 42.6165 2.48193 42.75H11.0184V38.25Z" fill="#EEC78E"/>
</g>
<g clip-path="url(#clip12_1015_535)">
<path d="M3.51823 42L2.68873 42.4148C2.41198 42.5528 2.41198 42.9472 2.68873 43.0852L3.51823 43.5V42Z" fill="#353744"/>
</g>
<g clip-path="url(#clip13_1015_535)">
<path d="M39.5182 38.25V47.25H36.5182V38.25H39.5182Z" fill="#B3B4B6"/>
</g>
<g clip-path="url(#clip14_1015_535)">
<path d="M39.5182 38.25V42.75H36.5182V38.25H39.5182Z" fill="#DBDEE3"/>
</g>
<g clip-path="url(#clip15_1015_535)">
<path d="M45.5183 45V40.5C45.5183 39.2573 44.511 38.25 43.2683 38.25H39.5182V47.25H42.5183H43.2683C44.511 47.25 45.5183 46.2428 45.5183 45Z" fill="#353744"/>
</g>
<g clip-path="url(#clip16_1015_535)">
<path d="M45.5183 42.75V40.5C45.5183 39.2573 44.511 38.25 43.2683 38.25H39.5182V42.75H45.5183Z" fill="#55525B"/>
</g>
</g>
<g clip-path="url(#clip17_1015_535)">
<path d="M41.0182 5.25H8.01823C7.18948 5.25 6.51823 4.57875 6.51823 3.75C6.51823 2.92125 7.18948 2.25 8.01823 2.25H41.0182C41.847 2.25 42.5182 2.92125 42.5182 3.75C42.5182 4.57875 41.847 5.25 41.0182 5.25Z" fill="#353744"/>
</g>
<g clip-path="url(#clip18_1015_535)">
<path d="M26.0182 3.75C26.0182 2.92125 25.347 2.25 24.5182 2.25H8.01823C7.18948 2.25 6.51823 2.92125 6.51823 3.75C6.51823 4.578 7.18948 5.25 8.01823 5.25H24.5182C25.347 5.25 26.0182 4.578 26.0182 3.75Z" fill="#55525B"/>
</g>
<g clip-path="url(#clip19_1015_535)">
<path d="M33.8932 11.25H15.1432C14.7292 11.25 14.3932 10.914 14.3932 10.5V5.25H34.6432V10.5C34.6432 10.914 34.3072 11.25 33.8932 11.25Z" fill="#353744"/>
</g>
<g clip-path="url(#clip20_1015_535)">
<path d="M24.5182 11.25H15.1432C14.7292 11.25 14.3932 10.914 14.3932 10.5V8.25H23.0182C23.847 8.25 24.5182 8.92125 24.5182 9.75V11.25Z" fill="#55525B"/>
</g>
<g clip-path="url(#clip21_1015_535)">
<path d="M38.0182 2.25H39.5183V11.25H38.0182V2.25Z" fill="#F68820"/>
</g>
<g clip-path="url(#clip22_1015_535)">
<path d="M23.0182 2.25H39.5182C39.5182 1.42125 38.847 0.75 38.0182 0.75H24.5182C23.6895 0.75 23.0182 1.42125 23.0182 2.25Z" fill="#FBBE18"/>
</g>
<g clip-path="url(#clip23_1015_535)">
<path d="M38.7682 12.75C39.5967 12.75 40.2682 12.0784 40.2682 11.25C40.2682 10.4216 39.5967 9.75 38.7682 9.75C37.9398 9.75 37.2682 10.4216 37.2682 11.25C37.2682 12.0784 37.9398 12.75 38.7682 12.75Z" fill="#FBBE18"/>
</g>
<g clip-path="url(#clip24_1015_535)">
<path d="M37.2682 11.25H40.2682V12.75H37.2682V11.25Z" fill="#B3B4B6"/>
</g>
<g clip-path="url(#clip25_1015_535)">
<path d="M37.2682 11.25H38.7683V12.75H37.2682V11.25Z" fill="#DBDEE3"/>
</g>
<g clip-path="url(#clip26_1015_535)">
<path d="M38.7683 18.75H37.2683C36.8543 18.75 36.5182 18.414 36.5182 18V13.5C36.5182 13.086 36.8543 12.75 37.2683 12.75H38.7683V18.75Z" fill="#FBBE18"/>
</g>
<g clip-path="url(#clip27_1015_535)">
<path d="M38.7682 18.75H40.2682C40.6822 18.75 41.0182 18.414 41.0182 18V13.5C41.0182 13.086 40.6822 12.75 40.2682 12.75H38.7682V18.75Z" fill="#F68820"/>
</g>
<g clip-path="url(#clip28_1015_535)">
<path d="M38.0182 18.75V13.875C38.0182 13.668 37.8502 13.5 37.6432 13.5C37.4362 13.5 37.2682 13.668 37.2682 13.875V18.75H38.0182Z" fill="#F68820"/>
</g>
<g clip-path="url(#clip29_1015_535)">
<path d="M40.2682 18.75V16.125C40.2682 15.918 40.1002 15.75 39.8932 15.75C39.6862 15.75 39.5182 15.918 39.5182 16.125V18.75H40.2682Z" fill="#FBBE18"/>
</g>
<g clip-path="url(#clip30_1015_535)">
<path d="M20.0182 23.25C22.5035 23.25 24.5182 21.2353 24.5182 18.75C24.5182 16.2647 22.5035 14.25 20.0182 14.25C17.533 14.25 15.5182 16.2647 15.5182 18.75C15.5182 21.2353 17.533 23.25 20.0182 23.25Z" fill="#DBDEE3"/>
</g>
<g clip-path="url(#clip31_1015_535)">
<path d="M20.0182 23.25C22.5035 23.25 24.5182 21.2353 24.5182 18.75C24.5182 16.2647 22.5035 14.25 20.0182 14.25C17.533 14.25 15.5182 16.2647 15.5182 18.75C15.5182 21.2353 17.533 23.25 20.0182 23.25Z" fill="#DBDEE3"/>
</g>
<g clip-path="url(#clip32_1015_535)">
<path d="M20.0182 20.25C20.8467 20.25 21.5182 19.5784 21.5182 18.75C21.5182 17.9216 20.8467 17.25 20.0182 17.25C19.1898 17.25 18.5182 17.9216 18.5182 18.75C18.5182 19.5784 19.1898 20.25 20.0182 20.25Z" fill="#55525B"/>
</g>
<g clip-path="url(#clip33_1015_535)">
<path d="M29.0182 23.25C31.5035 23.25 33.5182 21.2353 33.5182 18.75C33.5182 16.2647 31.5035 14.25 29.0182 14.25C26.533 14.25 24.5182 16.2647 24.5182 18.75C24.5182 21.2353 26.533 23.25 29.0182 23.25Z" fill="#DBDEE3"/>
</g>
<g clip-path="url(#clip34_1015_535)">
<path d="M29.0182 20.25C29.8467 20.25 30.5182 19.5784 30.5182 18.75C30.5182 17.9216 29.8467 17.25 29.0182 17.25C28.1898 17.25 27.5182 17.9216 27.5182 18.75C27.5182 19.5784 28.1898 20.25 29.0182 20.25Z" fill="#55525B"/>
</g>
<g clip-path="url(#clip35_1015_535)">
<path d="M24.5183 18.75C25.4483 18.75 26.1113 19.6523 25.8338 20.5395L25.2338 22.4588C25.0148 23.1608 24.021 23.1608 23.802 22.4588L23.202 20.5395C22.9253 19.6523 23.5883 18.75 24.5183 18.75Z" fill="#55525B"/>
</g>
<g clip-path="url(#clip36_1015_535)">
<path d="M22.2682 26.25C21.4395 26.25 20.7682 25.5788 20.7682 24.75H23.7682C23.7682 25.5788 23.097 26.25 22.2682 26.25Z" fill="#FBBE18"/>
</g>
<g clip-path="url(#clip37_1015_535)">
<path d="M26.7682 26.25C25.9395 26.25 25.2682 25.5788 25.2682 24.75H28.2682C28.2682 25.5788 27.597 26.25 26.7682 26.25Z" fill="#FBBE18"/>
</g>
<g clip-path="url(#clip38_1015_535)">
<path d="M22.2682 32.25C21.4395 32.25 20.7682 31.5788 20.7682 30.75H23.7682C23.7682 31.5788 23.097 32.25 22.2682 32.25Z" fill="#FBBE18"/>
</g>
<g clip-path="url(#clip39_1015_535)">
<path d="M26.7682 32.25C25.9395 32.25 25.2682 31.5788 25.2682 30.75H28.2682C28.2682 31.5788 27.597 32.25 26.7682 32.25Z" fill="#FBBE18"/>
</g>
<g clip-path="url(#clip40_1015_535)">
<path d="M24.5182 29.25C23.6895 29.25 23.0182 28.5788 23.0182 27.75H26.0182C26.0182 28.5788 25.347 29.25 24.5182 29.25Z" fill="#FBBE18"/>
</g>
<g clip-path="url(#clip41_1015_535)">
<path d="M24.5182 35.25C23.6895 35.25 23.0182 34.5788 23.0182 33.75H26.0182C26.0182 34.5788 25.347 35.25 24.5182 35.25Z" fill="#FBBE18"/>
</g>
<g clip-path="url(#clip42_1015_535)">
<path d="M19.6432 39.75C20.0572 39.75 20.3932 39.414 20.3932 39V37.5C20.3932 37.086 20.0572 36.75 19.6432 36.75C19.2292 36.75 18.8932 37.086 18.8932 37.5V39C18.8932 39.414 19.2292 39.75 19.6432 39.75Z" fill="#6FA4D8"/>
</g>
<g clip-path="url(#clip43_1015_535)">
<path d="M21.1432 39.75C21.5572 39.75 21.8932 39.414 21.8932 39V37.5C21.8932 37.086 21.5572 36.75 21.1432 36.75C20.7292 36.75 20.3932 37.086 20.3932 37.5V39C20.3932 39.414 20.7292 39.75 21.1432 39.75Z" fill="#6FA4D8"/>
</g>
<g clip-path="url(#clip44_1015_535)">
<path d="M22.6432 39.75C23.0572 39.75 23.3932 39.414 23.3932 39V37.5C23.3932 37.086 23.0572 36.75 22.6432 36.75C22.2292 36.75 21.8932 37.086 21.8932 37.5V39C21.8932 39.414 22.2292 39.75 22.6432 39.75Z" fill="#6FA4D8"/>
</g>
<g clip-path="url(#clip45_1015_535)">
<path d="M26.3932 39.75C26.8072 39.75 27.1432 39.414 27.1432 39V37.5C27.1432 37.086 26.8072 36.75 26.3932 36.75C25.9792 36.75 25.6432 37.086 25.6432 37.5V39C25.6432 39.414 25.9792 39.75 26.3932 39.75Z" fill="#6FA4D8"/>
</g>
<g clip-path="url(#clip46_1015_535)">
<path d="M27.8932 39.75C28.3072 39.75 28.6432 39.414 28.6432 39V37.5C28.6432 37.086 28.3072 36.75 27.8932 36.75C27.4792 36.75 27.1432 37.086 27.1432 37.5V39C27.1432 39.414 27.4792 39.75 27.8932 39.75Z" fill="#6FA4D8"/>
</g>
<g clip-path="url(#clip47_1015_535)">
<path d="M29.3932 39.75C29.8072 39.75 30.1432 39.414 30.1432 39V37.5C30.1432 37.086 29.8072 36.75 29.3932 36.75C28.9792 36.75 28.6432 37.086 28.6432 37.5V39C28.6432 39.414 28.9792 39.75 29.3932 39.75Z" fill="#6FA4D8"/>
</g>
</g>
<defs>
<clipPath id="clip0_1015_535">
<rect width="43.0371" height="46.5" fill="white" transform="translate(2.48117 0.75)"/>
</clipPath>
<clipPath id="clip1_1015_535">
<rect width="3" height="9" fill="white" transform="translate(15.5182 24.75)"/>
</clipPath>
<clipPath id="clip2_1015_535">
<rect width="3" height="9" fill="white" transform="translate(30.5182 24.75)"/>
</clipPath>
<clipPath id="clip3_1015_535">
<rect width="18" height="27" fill="white" transform="translate(15.5182 11.25)"/>
</clipPath>
<clipPath id="clip4_1015_535">
<rect width="13.5" height="10.5" fill="white" transform="translate(11.0182 8.25)"/>
</clipPath>
<clipPath id="clip5_1015_535">
<rect width="13.5" height="10.5" fill="white" transform="translate(24.5182 8.25)"/>
</clipPath>
<clipPath id="clip6_1015_535">
<rect width="43.0371" height="9.00001" fill="white" transform="translate(2.48117 38.25)"/>
</clipPath>
<clipPath id="clip7_1015_535">
<rect width="25.5" height="3.00001" fill="white" transform="translate(11.0182 44.25)"/>
</clipPath>
<clipPath id="clip8_1015_535">
<rect width="25.5" height="3.00001" fill="white" transform="translate(11.0182 38.25)"/>
</clipPath>
<clipPath id="clip9_1015_535">
<rect width="25.5" height="3" fill="white" transform="translate(11.0182 41.25)"/>
</clipPath>
<clipPath id="clip10_1015_535">
<rect width="8.53706" height="9" fill="white" transform="translate(2.48117 38.25)"/>
</clipPath>
<clipPath id="clip11_1015_535">
<rect width="8.5365" height="4.5" fill="white" transform="translate(2.48193 38.25)"/>
</clipPath>
<clipPath id="clip12_1015_535">
<rect width="1.03706" height="1.5" fill="white" transform="translate(2.48117 42)"/>
</clipPath>
<clipPath id="clip13_1015_535">
<rect width="3" height="9" fill="white" transform="translate(36.5182 38.25)"/>
</clipPath>
<clipPath id="clip14_1015_535">
<rect width="3" height="4.5" fill="white" transform="translate(36.5182 38.25)"/>
</clipPath>
<clipPath id="clip15_1015_535">
<rect width="6" height="9" fill="white" transform="translate(39.5182 38.25)"/>
</clipPath>
<clipPath id="clip16_1015_535">
<rect width="6" height="4.5" fill="white" transform="translate(39.5182 38.25)"/>
</clipPath>
<clipPath id="clip17_1015_535">
<rect width="36" height="3" fill="white" transform="translate(6.51823 2.25)"/>
</clipPath>
<clipPath id="clip18_1015_535">
<rect width="19.5" height="3" fill="white" transform="translate(6.51823 2.25)"/>
</clipPath>
<clipPath id="clip19_1015_535">
<rect width="20.25" height="6" fill="white" transform="translate(14.3932 5.25)"/>
</clipPath>
<clipPath id="clip20_1015_535">
<rect width="10.125" height="3" fill="white" transform="translate(14.3932 8.25)"/>
</clipPath>
<clipPath id="clip21_1015_535">
<rect width="1.5" height="9" fill="white" transform="translate(38.0182 2.25)"/>
</clipPath>
<clipPath id="clip22_1015_535">
<rect width="16.5" height="1.5" fill="white" transform="translate(23.0182 0.75)"/>
</clipPath>
<clipPath id="clip23_1015_535">
<rect width="3" height="3" fill="white" transform="translate(37.2682 9.75)"/>
</clipPath>
<clipPath id="clip24_1015_535">
<rect width="3" height="1.5" fill="white" transform="translate(37.2682 11.25)"/>
</clipPath>
<clipPath id="clip25_1015_535">
<rect width="1.5" height="1.5" fill="white" transform="translate(37.2682 11.25)"/>
</clipPath>
<clipPath id="clip26_1015_535">
<rect width="2.25" height="6" fill="white" transform="translate(36.5182 12.75)"/>
</clipPath>
<clipPath id="clip27_1015_535">
<rect width="2.25" height="6" fill="white" transform="translate(38.7682 12.75)"/>
</clipPath>
<clipPath id="clip28_1015_535">
<rect width="0.75" height="5.25" fill="white" transform="translate(37.2682 13.5)"/>
</clipPath>
<clipPath id="clip29_1015_535">
<rect width="0.749996" height="3" fill="white" transform="translate(39.5182 15.75)"/>
</clipPath>
<clipPath id="clip30_1015_535">
<rect width="9.00001" height="9" fill="white" transform="translate(15.5182 14.25)"/>
</clipPath>
<clipPath id="clip31_1015_535">
<rect width="9.00001" height="9" fill="white" transform="translate(15.5182 14.25)"/>
</clipPath>
<clipPath id="clip32_1015_535">
<rect width="3" height="3" fill="white" transform="translate(18.5182 17.25)"/>
</clipPath>
<clipPath id="clip33_1015_535">
<rect width="9" height="9" fill="white" transform="translate(24.5182 14.25)"/>
</clipPath>
<clipPath id="clip34_1015_535">
<rect width="3" height="3" fill="white" transform="translate(27.5182 17.25)"/>
</clipPath>
<clipPath id="clip35_1015_535">
<rect width="2.75898" height="4.23525" fill="white" transform="translate(23.1386 18.75)"/>
</clipPath>
<clipPath id="clip36_1015_535">
<rect width="3" height="1.5" fill="white" transform="translate(20.7682 24.75)"/>
</clipPath>
<clipPath id="clip37_1015_535">
<rect width="3" height="1.5" fill="white" transform="translate(25.2682 24.75)"/>
</clipPath>
<clipPath id="clip38_1015_535">
<rect width="3" height="1.5" fill="white" transform="translate(20.7682 30.75)"/>
</clipPath>
<clipPath id="clip39_1015_535">
<rect width="3" height="1.5" fill="white" transform="translate(25.2682 30.75)"/>
</clipPath>
<clipPath id="clip40_1015_535">
<rect width="3.00001" height="1.5" fill="white" transform="translate(23.0182 27.75)"/>
</clipPath>
<clipPath id="clip41_1015_535">
<rect width="3.00001" height="1.5" fill="white" transform="translate(23.0182 33.75)"/>
</clipPath>
<clipPath id="clip42_1015_535">
<rect width="1.5" height="3" fill="white" transform="translate(18.8932 36.75)"/>
</clipPath>
<clipPath id="clip43_1015_535">
<rect width="1.5" height="3" fill="white" transform="translate(20.3932 36.75)"/>
</clipPath>
<clipPath id="clip44_1015_535">
<rect width="1.5" height="3" fill="white" transform="translate(21.8932 36.75)"/>
</clipPath>
<clipPath id="clip45_1015_535">
<rect width="1.5" height="3" fill="white" transform="translate(25.6432 36.75)"/>
</clipPath>
<clipPath id="clip46_1015_535">
<rect width="1.5" height="3" fill="white" transform="translate(27.1432 36.75)"/>
</clipPath>
<clipPath id="clip47_1015_535">
<rect width="1.5" height="3" fill="white" transform="translate(28.6432 36.75)"/>
</clipPath>
</defs>
</svg>
