<svg width="49" height="48" viewBox="0 0 49 48" fill="none" xmlns="http://www.w3.org/2000/svg">
<g clip-path="url(#clip0_1015_477)">
<g clip-path="url(#clip1_1015_477)">
<path d="M47 36H5V12C5 10.3432 6.34325 9 8 9H44C45.6567 9 47 10.3432 47 12V36Z" fill="#353744"/>
</g>
<g clip-path="url(#clip2_1015_477)">
<path d="M47 36H5V37.5C5 39.1568 6.34325 40.5 8 40.5H44C45.6567 40.5 47 39.1568 47 37.5V36Z" fill="#808080"/>
</g>
<g clip-path="url(#clip3_1015_477)">
<path d="M44 36H5V12C5 10.3432 6.34325 9 8 9H41C42.6567 9 44 10.3432 44 12V36Z" fill="#55525B"/>
</g>
<g clip-path="url(#clip4_1015_477)">
<path d="M44 36H5V37.5C5 39.1568 6.34325 40.5 8 40.5H41C42.6567 40.5 44 39.1568 44 37.5V36Z" fill="#DBDEE3"/>
</g>
<g clip-path="url(#clip5_1015_477)">
<path d="M39.875 12H9.125C8.504 12 8 12.504 8 13.125V31.875C8 32.496 8.504 33 9.125 33H39.875C40.496 33 41 32.496 41 31.875V13.125C41 12.504 40.496 12 39.875 12Z" fill="#FBBE18"/>
</g>
<g clip-path="url(#clip6_1015_477)">
<path d="M12.5 18H29C29.8288 18 30.5 17.3287 30.5 16.5C30.5 15.6712 29.8288 15 29 15H12.5C11.6712 15 11 15.6712 11 16.5C11 17.3287 11.6712 18 12.5 18Z" fill="#F68820"/>
</g>
<g clip-path="url(#clip7_1015_477)">
<path d="M12.5 24H29C29.8288 24 30.5 23.3288 30.5 22.5C30.5 21.6712 29.8288 21 29 21H12.5C11.6712 21 11 21.6712 11 22.5C11 23.3288 11.6712 24 12.5 24Z" fill="#F68820"/>
</g>
<g clip-path="url(#clip8_1015_477)">
<path d="M12.5 30H29C29.8288 30 30.5 29.3288 30.5 28.5C30.5 27.6712 29.8288 27 29 27H12.5C11.6712 27 11 27.6712 11 28.5C11 29.3288 11.6712 30 12.5 30Z" fill="#F68820"/>
</g>
<g clip-path="url(#clip9_1015_477)">
<path d="M31.625 43.5H28.625V40.5H31.625V43.5Z" fill="#808080"/>
</g>
<g clip-path="url(#clip10_1015_477)">
<path d="M21.5 40.5H28.625V43.5H21.5V40.5Z" fill="#B3B4B6"/>
</g>
<g clip-path="url(#clip11_1015_477)">
<path d="M34.625 43.5H15.875C14.2182 43.5 12.875 44.8432 12.875 46.5H37.625C37.625 44.8432 36.2817 43.5 34.625 43.5Z" fill="#DBDEE3"/>
</g>
<g clip-path="url(#clip12_1015_477)">
<path d="M34.625 43.5H31.625C29.9683 43.5 28.625 44.8432 28.625 46.5H37.625C37.625 44.8432 36.2818 43.5 34.625 43.5Z" fill="#808080"/>
</g>
<g clip-path="url(#clip13_1015_477)">
<path d="M13.25 1.5H11C6.02975 1.5 2 5.52975 2 10.5C2 15.4703 6.02975 19.5 11 19.5H13.25C18.2202 19.5 22.25 15.4703 22.25 10.5C22.25 5.52975 18.2202 1.5 13.25 1.5Z" fill="#5C76B2"/>
</g>
<g clip-path="url(#clip14_1015_477)">
<path d="M11 19.5C15.9706 19.5 20 15.4706 20 10.5C20 5.52944 15.9706 1.5 11 1.5C6.02944 1.5 2 5.52944 2 10.5C2 15.4706 6.02944 19.5 11 19.5Z" fill="#6FA4D8"/>
</g>
<g clip-path="url(#clip15_1015_477)">
<path d="M11 18C15.1421 18 18.5 14.6421 18.5 10.5C18.5 6.35786 15.1421 3 11 3C6.85786 3 3.5 6.35786 3.5 10.5C3.5 14.6421 6.85786 18 11 18Z" fill="#55525B"/>
</g>
<g clip-path="url(#clip16_1015_477)">
<path d="M11 10.875C10.793 10.875 10.625 10.707 10.625 10.5V4.5C10.625 4.293 10.793 4.125 11 4.125C11.207 4.125 11.375 4.293 11.375 4.5V10.5C11.375 10.707 11.207 10.875 11 10.875Z" fill="#6FA4D8"/>
</g>
<g clip-path="url(#clip17_1015_477)">
<path d="M7.81849 14.0572C7.72249 14.0572 7.62649 14.0204 7.55299 13.9477C7.40674 13.8014 7.40674 13.5637 7.55299 13.4174L10.7345 10.2352C10.8807 10.0889 11.1185 10.0889 11.2647 10.2352C11.411 10.3814 11.411 10.6192 11.2647 10.7654L8.08324 13.9477C8.01049 14.0204 7.91449 14.0572 7.81849 14.0572Z" fill="#6FA4D8"/>
</g>
<g clip-path="url(#clip18_1015_477)">
<path d="M11 12C11.8284 12 12.5 11.3284 12.5 10.5C12.5 9.67157 11.8284 9 11 9C10.1716 9 9.5 9.67157 9.5 10.5C9.5 11.3284 10.1716 12 11 12Z" fill="#F68820"/>
</g>
<g clip-path="url(#clip19_1015_477)">
<path d="M11 11.25C11.4142 11.25 11.75 10.9142 11.75 10.5C11.75 10.0858 11.4142 9.75 11 9.75C10.5858 9.75 10.25 10.0858 10.25 10.5C10.25 10.9142 10.5858 11.25 11 11.25Z" fill="#DBDEE3"/>
</g>
<g clip-path="url(#clip20_1015_477)">
<path d="M5.75 10.875H5C4.793 10.875 4.625 10.707 4.625 10.5C4.625 10.293 4.793 10.125 5 10.125H5.75C5.957 10.125 6.125 10.293 6.125 10.5C6.125 10.707 5.957 10.875 5.75 10.875Z" fill="#F68820"/>
</g>
<g clip-path="url(#clip21_1015_477)">
<path d="M11 16.875C10.793 16.875 10.625 16.707 10.625 16.5V15.75C10.625 15.543 10.793 15.375 11 15.375C11.207 15.375 11.375 15.543 11.375 15.75V16.5C11.375 16.707 11.207 16.875 11 16.875Z" fill="#F68820"/>
</g>
<g clip-path="url(#clip22_1015_477)">
<path d="M17 10.875H16.25C16.043 10.875 15.875 10.707 15.875 10.5C15.875 10.293 16.043 10.125 16.25 10.125H17C17.207 10.125 17.375 10.293 17.375 10.5C17.375 10.707 17.207 10.875 17 10.875Z" fill="#F68820"/>
</g>
<g clip-path="url(#clip23_1015_477)">
<path d="M35.75 30C34.9212 30 34.25 29.3288 34.25 28.5C34.25 27.6712 34.9212 27 35.75 27C36.5788 27 37.25 27.6712 37.25 28.5C37.25 29.3288 36.5788 30 35.75 30Z" fill="#F68820"/>
</g>
<g clip-path="url(#clip24_1015_477)">
<path d="M35.1875 15.5625L35.75 16.125L37.4375 14.4375C37.748 14.127 38.252 14.127 38.5625 14.4375C38.873 14.748 38.873 15.252 38.5625 15.5625L36.3125 17.8125C36.002 18.123 35.498 18.123 35.1875 17.8125L34.0625 16.6875C33.752 16.377 33.752 15.873 34.0625 15.5625C34.373 15.252 34.877 15.252 35.1875 15.5625Z" fill="#5C76B2"/>
</g>
<g clip-path="url(#clip25_1015_477)">
<path d="M35.1875 21.5625L35.75 22.125L37.4375 20.4375C37.748 20.127 38.252 20.127 38.5625 20.4375C38.873 20.748 38.873 21.252 38.5625 21.5625L36.3125 23.8125C36.002 24.123 35.498 24.123 35.1875 23.8125L34.0625 22.6875C33.752 22.377 33.752 21.873 34.0625 21.5625C34.373 21.252 34.877 21.252 35.1875 21.5625Z" fill="#5C76B2"/>
</g>
</g>
<defs>
<clipPath id="clip0_1015_477">
<rect width="45" height="45" fill="white" transform="translate(2 1.5)"/>
</clipPath>
<clipPath id="clip1_1015_477">
<rect width="42" height="27" fill="white" transform="translate(5 9)"/>
</clipPath>
<clipPath id="clip2_1015_477">
<rect width="42" height="4.5" fill="white" transform="translate(5 36)"/>
</clipPath>
<clipPath id="clip3_1015_477">
<rect width="39" height="27" fill="white" transform="translate(5 9)"/>
</clipPath>
<clipPath id="clip4_1015_477">
<rect width="39" height="4.5" fill="white" transform="translate(5 36)"/>
</clipPath>
<clipPath id="clip5_1015_477">
<rect width="33" height="21" fill="white" transform="translate(8 12)"/>
</clipPath>
<clipPath id="clip6_1015_477">
<rect width="19.5" height="3" fill="white" transform="translate(11 15)"/>
</clipPath>
<clipPath id="clip7_1015_477">
<rect width="19.5" height="3" fill="white" transform="translate(11 21)"/>
</clipPath>
<clipPath id="clip8_1015_477">
<rect width="19.5" height="3" fill="white" transform="translate(11 27)"/>
</clipPath>
<clipPath id="clip9_1015_477">
<rect width="3" height="3" fill="white" transform="translate(28.625 40.5)"/>
</clipPath>
<clipPath id="clip10_1015_477">
<rect width="7.125" height="3" fill="white" transform="translate(21.5 40.5)"/>
</clipPath>
<clipPath id="clip11_1015_477">
<rect width="24.75" height="3" fill="white" transform="translate(12.875 43.5)"/>
</clipPath>
<clipPath id="clip12_1015_477">
<rect width="9" height="3" fill="white" transform="translate(28.625 43.5)"/>
</clipPath>
<clipPath id="clip13_1015_477">
<rect width="20.25" height="18" fill="white" transform="translate(2 1.5)"/>
</clipPath>
<clipPath id="clip14_1015_477">
<rect width="18" height="18" fill="white" transform="translate(2 1.5)"/>
</clipPath>
<clipPath id="clip15_1015_477">
<rect width="15" height="15" fill="white" transform="translate(3.5 3)"/>
</clipPath>
<clipPath id="clip16_1015_477">
<rect width="0.75" height="6.75" fill="white" transform="translate(10.625 4.125)"/>
</clipPath>
<clipPath id="clip17_1015_477">
<rect width="3.93113" height="3.93169" fill="white" transform="translate(7.4433 10.1255)"/>
</clipPath>
<clipPath id="clip18_1015_477">
<rect width="3" height="3" fill="white" transform="translate(9.5 9)"/>
</clipPath>
<clipPath id="clip19_1015_477">
<rect width="1.5" height="1.5" fill="white" transform="translate(10.25 9.75)"/>
</clipPath>
<clipPath id="clip20_1015_477">
<rect width="1.5" height="0.75" fill="white" transform="translate(4.625 10.125)"/>
</clipPath>
<clipPath id="clip21_1015_477">
<rect width="0.75" height="1.5" fill="white" transform="translate(10.625 15.375)"/>
</clipPath>
<clipPath id="clip22_1015_477">
<rect width="1.5" height="0.75" fill="white" transform="translate(15.875 10.125)"/>
</clipPath>
<clipPath id="clip23_1015_477">
<rect width="3" height="3" fill="white" transform="translate(34.25 27)"/>
</clipPath>
<clipPath id="clip24_1015_477">
<rect width="4.96576" height="3.84075" fill="white" transform="translate(33.8297 14.2046)"/>
</clipPath>
<clipPath id="clip25_1015_477">
<rect width="4.96576" height="3.84076" fill="white" transform="translate(33.8297 20.2046)"/>
</clipPath>
</defs>
</svg>
